<svg width="234" height="80" viewBox="0 0 234 80" fill="none" xmlns="http://www.w3.org/2000/svg">
<g clip-path="url(#clip0_32_1158)">
<path d="M28.3712 0.166626L31.1505 0.277737L32.8181 0.61107L35.2639 1.61107L36.7091 2.38885L38.4878 3.72218L39.7107 4.83329L40.9336 6.38885L42.3789 8.72218L44.0465 11.9444L44.9358 13.9444L46.4923 16.5L47.8263 18.2777L49.3827 19.9444L51.2727 21.3888L52.2732 22.0555L52.6067 22.1666V21.2777L53.0514 19.9444L53.7184 19.0555L54.3855 18.6111L55.1637 18.5L55.386 17.8333L56.1642 16.9444L57.1648 16.5H58.61L59.0547 16.7222L59.9441 18.1666L60.9446 19.9444L62.0564 22.5L62.6122 24.5L63.1681 25.0555L64.5022 26.6111L65.058 27.7222L66.9479 33.0555L68.282 36.8333L69.5049 38.2777L70.839 39.8333L71.8395 40.9444L72.5066 41.7222V41.9444L72.9512 42.1666L74.1741 43.6111L75.397 45.1666L76.6199 46.6111L77.8428 48.1666L78.9545 49.6111L80.7333 52.5L82.1785 55.1666L82.9568 57.5L83.1791 59.1666V64.8333L82.7344 67.8333L82.1785 69.5L81.2892 71.2777L79.8439 73.8333L79.1769 75.3889L78.5099 77.6111L77.8428 77.7222L77.6205 77.6111L77.8428 76.2777L78.3987 74.5L79.2881 72.5L79.8439 71.7222L80.511 70.5L81.0668 69.2777L81.5115 67.8333L81.9562 65.6111L82.1785 63.9444V58.9444L81.845 56.7222L81.178 54.7222L80.0663 52.7222L79.0657 51.1666L78.2875 49.8333L77.0646 48.1666L75.9529 46.7222L74.9523 45.6111L74.063 44.5L72.5066 42.6111L71.2837 41.0555L69.7273 39.1666L68.7267 37.9444L69.0602 39.0555L70.3943 43.0555L71.8395 47.7222L73.0624 51.5L74.6188 56.2777L75.0635 57.9444L75.1747 59.8333V62.9444L74.8412 64.0555L73.8406 65.7222L73.0624 66.8333L71.9507 68.6111L71.0613 69.8333L70.3943 70.7222L69.3937 71.9444L68.5044 73.0555L67.0591 74.7222L65.8362 75.9444L65.058 76.8333L63.5016 78.3889H62.1675L62.8346 77.6111L64.6133 75.9444L65.3915 75.0555L66.7256 73.6111L68.1708 71.9444L69.5049 70.1666L70.3943 68.9444L71.7284 66.8333L72.8401 65.0555L73.7295 63.5L74.1741 62.2777V60.2777L73.9518 57.9444L73.5071 56.1666L73.0624 54.7222L72.2842 51.9444L71.0613 48.0555L70.3943 45.8333L68.7267 40.6111L67.8373 37.5L67.3926 36.3889L67.0591 35.0555L65.6139 30.5L64.391 27.2777L62.9457 25.6111L62.2787 24.8333L61.7229 25.0555H60.7223L59.1659 24.5L58.2765 23.8333L57.1648 22.7222L56.0531 20.9444L55.386 19.5V19.2777L54.6078 19.6111L53.9408 20.3888L53.3849 21.7222L53.1626 23.2777V26.2777L53.4961 28.6111L54.719 33.3889L55.2749 35.7222L56.1642 39.0555L57.6095 44.9444L58.2765 48.3889L58.9435 50.9444L59.2771 52.3889H61.7229L63.5016 52.5L65.2804 52.9444L66.2809 53.6111L67.3926 55.5L68.7267 57.8333L69.3937 59.3889L69.6161 60.2777V61.6111L69.1714 62.7222L68.5044 63.8333L67.7262 65.0555L67.5038 65.3889H67.2815L67.0591 65.8333L65.8362 67.0555L63.6128 68.8333L61.0558 70.1666L59.4994 71.0555L55.6084 72.6111L53.1626 73.2777L51.6062 73.8333L48.7157 74.6111L46.3811 75.0555L43.3794 75.7222L41.7118 76.1666L40.3778 77.8333L39.5996 78.9444H38.599L38.8214 78.2777L39.5996 77.1666L40.1554 76.5L38.7102 76.7222L35.375 77.5L32.5957 78.2777L31.8175 78.9444L31.5952 79.2777L30.4834 79.3889L30.7058 78.8333L29.0382 79.0555L26.5924 79.6111L23.9243 79.8333H22.8126L23.1461 79.5L24.5913 79.0555L26.4812 78.6111L28.927 78.0555L32.8181 77.0555L35.7085 76.3889L37.3761 75.9444L38.599 75.6111L40.6001 75.2777L42.6012 74.8333L48.1598 73.6111L50.6056 72.9444L51.6062 72.7222L53.3849 72.0555L55.2749 71.5L57.6095 70.6111L58.61 70.1666L60.3888 69.1666L62.5011 68.0555L63.5016 67.2777L65.1692 65.8333L65.9474 65.1666L66.9479 63.7222L64.7245 64.7222L60.7223 66.0555L58.61 66.7222L57.1648 66.9444H55.2749L54.2743 66.8333L53.6073 66.3889L52.4956 65.3889L51.8285 64.5L51.3838 63.2777V61.5L51.8285 60.1666L52.9402 58.7222L54.3855 57.7222L56.3866 56.6111L59.9441 54.8333L63.1681 53.6111L63.724 53.3889L62.3899 53.2777H60.6111L58.4989 53.5L57.1648 53.7222H56.6089L56.3866 54.1666L55.4972 54.9444L54.3855 55.5L53.8296 55.6111H52.4956L52.6067 55.0555L52.7179 54.8333L50.828 55.5L49.0492 56.0555L47.0481 56.7222L44.9358 57.3889L42.4901 57.9444L40.7113 58.5L38.8214 58.9444L37.3761 59.2777L34.5968 59.8333L31.1505 60.3889L25.9254 61.1666L25.4807 61.2777H23.7019L20.9226 60.7222L17.8098 59.8333L16.1422 59.6111L14.4746 59.7222L12.4735 60.3889L11.2506 61.1666L9.58306 62.2777L8.91603 62.6111L8.36017 62.5L8.13782 62.0555L10.0278 60.8333L11.473 59.7222L13.5853 58.8333L14.5858 58.7222L12.5847 58.1666L10.3613 57.2777L8.02665 56.3889L5.80321 55.7222L4.58031 55.5H2.91273L0.800456 55.9444L0.355767 55.8333L0.133423 55.6111L0.244595 55.1666L2.57921 54.6111H4.02445L5.69204 54.8333L8.249 55.6111L10.9171 56.7222L16.5869 58.6111L15.8087 57.2777L14.8082 56.3889L10.4724 53.0555L9.36072 52.0555L8.02665 50.5L7.0261 49.0555L6.13672 47.2777L5.80321 45.8333V44.2777L6.2479 43.1666L7.13727 42.3889L7.91548 42.0555L9.13838 41.9444L10.2501 42.2777L10.806 42.6111L10.9171 42.9444H9.36072L8.249 43.2777L7.47079 43.8333L6.91493 44.9444L6.80376 45.2777L6.91493 46.8333L7.35962 48.0555L8.02665 49.2777L9.24955 50.8333L10.6948 52.3889L12.0289 53.3889L13.5853 54.6111L15.364 55.9444L16.4757 56.9444L17.1428 58.0555L17.3651 58.6111V58.9444L18.588 59.1666L21.2562 59.9444L22.479 60.2777L23.2573 60.3889H24.8137L30.5946 59.3889L33.7074 58.8333L35.5974 58.6111L39.0437 57.8333L42.3789 56.8333L44.6023 56.3889L46.4923 55.7222L48.1598 55.1666L49.0492 54.8333L50.828 54.3889L52.0509 53.9444L51.2727 53.7222L51.0503 53.5V52.9444L51.7173 52.5L52.8291 52.2777H53.8296L54.9413 52.3889H56.8313L54.8302 51.7222L53.0514 50.7222L52.0509 50.0555H51.2727L49.1604 50.6111L48.3822 50.7222H44.38L42.4901 50.3889L40.9336 49.6111L40.1554 48.8333L39.4884 47.5L39.3772 47.0555V46.1666L39.8219 45.3889L40.6001 44.8333L41.156 44.7222L40.8225 43.7222L40.9336 43.0555L41.6007 42.2777L42.8236 41.7222L43.2683 41.1666L43.7129 40.5L44.7135 40.0555L45.4917 39.9444H47.3816L48.4934 40.2777L49.1604 40.5H49.9386L50.6056 40.1666H51.7173L52.6067 40.6111L53.0514 41.1666L53.2738 41.7222L53.3849 43.1666L53.0514 44.5L52.2732 46.6111L51.8285 47.6111L51.7173 48.0555V49.2777L52.162 49.5L53.7184 50.6111L55.4972 51.3889L54.4967 50.2777L53.8296 49.1666L53.4961 48.1666V47.3889L54.4967 47.5L55.8307 48.0555L57.1648 48.8333L57.6095 49.2777L57.3871 48.1666L56.9424 46.2777L56.6089 44.0555L55.4972 39.9444L54.4967 35.6111L52.7179 28.5L52.3844 25.7222V22.9444L50.7168 21.9444L49.2716 20.7222L48.3822 19.9444L47.0481 18.5L45.6029 16.5L44.6023 14.8333L43.1571 11.9444L41.9342 9.38885L40.8225 7.61107L39.9331 6.27774L38.7102 4.9444L37.5985 3.9444L35.8197 2.72218L34.041 2.05552L32.3734 1.72218L31.484 1.61107H29.4829L28.1488 1.9444L26.2589 2.83329L24.9248 3.83329L24.0355 4.72218L23.0349 6.16663L22.8126 6.72218L22.7014 7.72218L22.9237 9.72218L23.4796 11.2777L24.4801 13.1666L25.4807 14.5L26.3701 15.5L27.4818 16.2777L28.927 17.2777L30.2611 18.1666L31.3728 18.9444L33.1516 20.1666L34.1521 20.9444L35.2639 22.0555L35.9309 23.3888V24.5L35.7085 24.8333L35.1527 24.7222L34.9303 24.6111L35.1527 23.8333L35.0415 23.0555L34.3745 22.1666L33.5963 21.3888L31.0393 20.1666L29.0382 18.9444L27.8153 17.9444L26.8148 17.0555L26.0366 16.1666L25.1472 15.2777L24.1466 13.9444L23.1461 12.2777L22.2567 10.3888L21.9232 9.16663L21.7008 7.16663L21.812 5.83329L22.2567 4.05552L22.9237 2.9444L23.5908 2.16663L24.7025 1.27774L26.2589 0.499959L27.2595 0.277737L28.3712 0.166626ZM57.7206 17.2777L56.8313 17.7222L56.1642 18.5L56.0531 19.0555L56.9424 20.9444L58.0542 22.5L59.1659 23.7222L59.8329 24.1666L60.2776 24.2777H61.167L61.6117 23.9444L61.5005 23.1666L60.9446 21.9444L59.4994 18.8333L58.61 17.2777H57.7206ZM45.2694 40.3889L44.2688 40.7222L43.4906 41.8333L43.1571 42.1666L42.0454 42.5L41.4895 43.1666V44.2777L42.1565 45.3889L43.1571 46.5L44.9358 47.7222L46.4923 48.5L48.6045 49.0555L50.4945 49.1666L50.1609 48.9444L48.7157 48.3889L46.8258 47.3889L45.2694 46.2777L44.2688 45.1666L43.7129 44.2777L43.3794 43.2777L43.2683 42.6111H43.4906L43.6018 43.6111L44.2688 44.9444L45.2694 46.0555L46.0476 46.7222L47.4928 47.6111L49.1604 48.5L50.3833 48.9444L50.7168 48.8333L49.7162 47.8333L48.8269 47.0555L46.7146 44.9444L45.6029 43.3889L45.2694 42.5V41.7222L45.9364 40.3889H45.2694ZM46.6034 40.3889L45.8252 41.5L45.6029 42.0555L45.714 42.9444L46.3811 44.0555L47.3816 45.1666L47.8263 45.7222L48.7157 46.5L49.7162 47.5L50.6056 48.2777L50.828 48.3889L50.4945 47.3889L50.0498 46.2777L49.9386 45.6111V44.7222L50.2721 42.6111V41.6111L49.9386 40.9444L48.7157 40.7222L47.8263 40.3889H46.6034ZM50.828 40.6111L50.2721 40.7222L50.6056 42.0555L50.4945 43.6111L50.2721 44.8333V45.9444L50.7168 47.6111L51.1615 48.7222L51.3838 48.8333L51.495 47.3889L52.0509 46.0555L52.8291 44.0555L53.0514 42.8333L52.9402 41.7222L52.4956 40.9444L51.7173 40.6111H50.828ZM41.156 45.1666L40.3778 45.6111L40.0443 46.1666V47.3889L40.489 48.5L41.2672 49.3889L42.6012 50.0555L43.6018 50.2777L44.6023 50.3889H47.8263L50.0498 50.0555L50.4945 49.8333L47.1593 49.7222L45.6029 49.3889L43.9353 48.7222L44.8247 49.0555L46.2699 49.5L46.9369 49.6111H50.3833L50.2721 49.3889L48.4934 49.2777L46.1587 48.6111L44.6023 47.8333L43.0459 46.7222L42.1565 45.9444L41.6007 45.1666H41.156ZM53.6073 47.5L53.9408 48.8333L54.6078 50.1666L55.4972 51.1666L56.6089 51.9444L57.6095 52.2777L58.0542 52.1666L56.9424 51.2777L55.4972 49.1666L55.9419 49.6111L56.7201 50.8333L57.276 51.5L58.4989 52.2777L58.61 51.9444L57.943 49.9444L57.3871 49.2777L56.4978 48.6111L54.6078 47.7222L53.6073 47.5ZM52.162 52.6111L51.495 52.8333L51.3838 52.9444V53.5L51.9397 53.7222L52.9402 53.3889L53.8296 52.7222V52.6111H52.162ZM54.1631 52.6111L52.7179 53.6111L53.0514 53.7222L54.9413 53.1666L55.9419 52.9444L57.0536 52.8333V52.6111H54.1631ZM56.0531 53.8333L54.719 54.1666L53.4961 54.8333L52.7179 55.3889V55.5H53.6073L55.0525 55.0555L55.9419 54.3889L56.3866 53.8333H56.0531ZM65.2804 53.8333L62.1675 54.9444L58.8324 56.5L56.6089 57.6111L54.4967 58.8333L53.6073 59.6111L52.9402 61.0555L52.7179 62.2777V63.6111L52.9402 64.3889L53.6073 65.2777L54.3855 65.9444L54.6078 66.0555L56.1642 66.1666L57.8318 65.9444L61.167 64.9444L63.1681 64.2777L65.9474 63.0555L68.1708 61.9444L68.8379 61.2777V60.0555L68.5044 58.9444L66.8368 55.8333L65.7251 54.1666L65.2804 53.8333ZM52.9402 54.7222L52.8291 55.1666L53.2738 54.7222H52.9402Z" fill="#374957"/>
<path d="M8.69368 18.1666H11.0283L12.3624 18.7222L13.8076 19.7222L14.697 20.5L15.5864 21.7222L16.9204 23.8333L18.6992 26.8333L19.6997 28.1666L20.0332 28.5V28.7222L20.4779 28.9444L21.0338 29.2777L21.4785 29.3888L23.1461 29.5L23.3684 29.7222L23.2572 30.1666L22.7014 30.5L21.7008 30.3888L20.7003 29.9444L20.0332 29.5L18.6992 28.1666L17.1428 25.7222L16.1422 23.9444L14.5858 21.6111L13.9188 20.7222L12.5847 19.7222L11.473 19.1666H9.69423L8.5825 19.5L7.69312 20.2777L6.80375 21.2777L6.35906 22.2777L6.24789 23.8333L6.69257 24.8333L7.58195 26.0555L8.91602 27.3888L9.91657 28.1666L12.0288 28.5L13.1406 29.1666L13.6964 29.6111L14.697 30.9444L15.4752 32.6111L16.031 34.3888V34.6111L16.4757 34.8333L17.921 36.1666L18.8104 37.1666L19.5886 38.7222L19.8109 39.8333V41.1666L19.3662 42.5L19.255 42.7222L18.6992 42.5V38.9444L18.4768 37.9444L17.8098 36.9444L16.8093 35.8333L16.031 35.1666V36.9444L15.4752 38.0555L13.9188 39.2777L12.807 39.8333L12.3624 39.9444H11.5842L11.1395 39.7222L11.0283 39.2777L12.3624 38.9444L13.3629 38.2777L13.9188 37.8333L14.697 36.2777L15.0305 35.2777V34.3888L14.5858 32.5L13.5853 30.6111L12.6959 29.7222L11.9177 29.3888H10.4724L8.91602 29.8333L7.91547 30.3888L6.80375 31.2777L6.24789 32.2777L6.02554 33.0555L5.91437 34.3888L6.13671 35.9444L6.80375 37.0555L8.02664 38.5L9.58305 39.7222L10.9171 40.5L13.4741 41.7222L15.1417 42.7222L16.3646 43.7222L17.4763 45.1666L18.4768 47.0555L19.0327 48.5L19.1439 48.9444V50.3888L18.6992 51.3888L18.1433 51.2777V49.0555L17.921 47.7222L17.0316 45.9444L16.1422 44.6111L15.5864 43.9444L14.1411 42.9444L11.1395 41.3888L9.24954 40.3888L8.13781 39.5L7.02609 38.5L6.02554 37.2777L5.24734 35.7222L4.91382 34.6111V32.5L5.35851 31.0555L6.13671 30.0555L7.69312 28.9444L8.47133 28.6111L9.58305 28.5V28.2777L9.02719 28.1666L7.8043 27.0555L6.91492 26.2777L6.13671 25.3888L5.46968 24.0555L5.24734 23.3888V21.9444L5.46968 20.8333L6.02554 19.9444L6.91492 18.9444L7.91547 18.3888L8.69368 18.1666Z" fill="#374957"/>
<path d="M15.0305 10.1666H16.6981L17.921 10.5L19.0327 11.0555L20.4779 12.1666L21.7008 13.3888L23.1461 15.2777L24.4801 17.0555L25.5919 18.6111L26.7036 20.0555L28.0376 21.6111L29.2605 22.9444L30.817 24.6111L31.7063 25.2777L32.3734 25.5L33.1516 25.6111H34.4856L35.0415 25.9444V26.1666L34.4856 26.3888L33.1516 26.5L31.7063 26.0555L30.5946 25.3888L29.4829 24.3888L28.7047 23.5L27.0371 21.7222L26.0365 20.5L24.5913 18.6111L23.4796 17.0555L22.3679 15.6111L21.4785 14.3888L20.4779 13.2777L20.0332 12.7222L18.3657 11.5L17.5875 11.1666L16.2534 11.0555L14.5858 11.5L13.3629 12.2777L12.6959 13.1666L12.3624 14.0555V15.3888L12.9182 16.5L14.0299 17.7222L15.5864 18.9444L17.0316 20.1666L18.3657 21.1666L20.0332 22.5L21.2561 23.5L22.3679 24.5L23.2572 25.2777L24.1466 26.1666L24.8137 28.0555V29.1666L24.7025 29.5L24.1466 29.2777L24.0354 27.5L23.4796 26.3888L21.9232 24.9444L20.7003 23.9444L19.3662 22.8333L17.921 21.7222L16.2534 20.3888L14.8081 19.2777L13.3629 18.0555L12.14 16.8333L11.473 15.5L11.1395 14.2777L11.2506 13.2777L11.6953 12.2777L12.3624 11.3888L13.4741 10.6111L14.5858 10.2777L15.0305 10.1666Z" fill="#374957"/>
<path d="M210.378 27.6447H212.157L213.158 27.978L214.158 28.7558L214.825 29.7558L215.048 30.5335V31.7558L214.714 32.5335L214.269 32.978L213.602 33.2002L212.602 33.0891L211.935 32.6447L211.601 31.8669L211.824 30.8669L212.046 30.3113L211.824 30.0891H210.934L210.378 30.7558L210.267 30.978V32.0891L210.823 32.6447L211.49 33.4224L212.157 34.7558L212.379 35.5335V38.3113L211.935 39.6447L211.268 40.8669L210.045 42.0891L208.822 42.7558L207.821 43.0891L207.154 43.2002H205.598L203.819 42.7558L202.485 42.2002H201.596L201.373 43.0891L201.485 44.0891L201.596 44.4224L202.707 44.8669L203.486 44.978L207.266 45.0891L209.489 45.4224L211.045 45.978L212.268 46.7558L213.158 47.6447L213.825 48.978L214.047 49.8669V51.7558L213.602 53.2002L212.824 54.3113L212.046 55.0891L210.601 55.978L208.933 56.5335L207.821 56.7558H204.042L202.04 56.3113L200.706 55.7558L199.595 54.978L198.705 54.0891L198.038 52.8669L197.816 51.7558V50.7558L198.149 49.4224L198.928 48.2002L200.039 47.3113L200.595 46.978L200.039 46.5335L199.039 45.6447L198.483 44.5335L198.372 43.978V42.7558L198.816 41.5335L199.484 40.6447L200.595 39.8669H200.818L200.262 38.2002L200.151 37.6447V36.0891L200.484 34.7558L201.151 33.4224L202.04 32.4224L203.263 31.6447L204.709 31.0891L205.376 30.978H207.599L207.933 29.6447L208.6 28.5335L209.6 27.8669L210.378 27.6447ZM205.264 33.5335L204.264 33.978L203.708 34.5335L203.152 35.6447L203.041 36.3113V37.978L203.375 38.978L204.264 39.978L205.153 40.4224L205.709 40.5335H206.932L208.155 40.0891L209.044 39.2002L209.489 37.978V36.2002L209.044 34.978L208.377 34.2002L207.71 33.7558L207.043 33.5335H205.264ZM205.264 47.6447L203.486 47.978L202.485 48.4224L201.596 49.0891L201.04 49.978L200.929 50.5335V51.3113L201.373 52.5335L202.152 53.3113L203.263 53.8669L204.709 54.2002H207.154L208.822 53.8669L210.045 53.2002L210.823 52.3113L211.157 51.4224V50.4224L210.823 49.5335L210.267 48.8669L209.489 48.3113L208.266 47.8669L206.821 47.6447H205.264Z" fill="#374957"/>
<path d="M93.6476 24.5334H95.2041L97.6498 24.8668H99.7621L101.652 24.7557H105.988L107.767 25.2001L109.323 25.9779L109.99 26.5334L110.879 27.7557L111.435 28.8668L111.769 30.089L111.88 30.9779V33.2001L111.546 34.8668L110.657 36.6446L109.99 37.4223L108.878 38.2001L107.322 38.8668L105.765 39.2001L104.876 39.3112L100.318 39.4223L99.8733 39.6446L99.7621 40.089V44.8668L100.096 46.6446L100.429 47.3112L100.763 47.5334L102.653 47.4223L103.32 47.7557L103.653 48.089L103.764 49.089L103.32 49.8668L102.764 50.2001H101.319L99.8733 49.9779L97.9834 49.8668L95.3152 50.2001H93.6476L92.9806 49.7557L92.6471 49.089V48.3112L92.9806 47.7557L93.6476 47.4223L95.6487 47.5334L96.2046 47.089L96.427 46.2001L96.5381 44.7557V29.9779L96.3158 27.9779L95.8711 27.3112H93.4253L92.8694 26.9779L92.6471 26.5334V25.5334L92.9806 24.9779L93.3141 24.6446L93.6476 24.5334ZM102.319 27.2001L100.874 27.4223L100.096 27.8668L99.7621 28.5334L99.6509 29.089V35.7557L99.8733 36.5334L99.9845 36.6446L100.763 36.7557H104.654L106.321 36.3112L107.433 35.6446L108.322 34.6446L108.767 33.3112V30.8668L108.322 29.4223L107.655 28.5334L106.988 27.9779L105.654 27.4223L104.209 27.2001H102.319Z" fill="#374957"/>
<path d="M141.785 24.6447H143.119L143.675 24.7558H145.12L145.676 24.6447H146.788L147.01 24.8669V46.6447L147.344 47.4224L147.566 47.5335L149.234 47.6447L149.79 48.0891L149.901 48.3113V49.4224L149.567 49.978L149.123 50.2002H148.011L147.233 50.0891H145.787L145.343 50.2002H144.231L143.898 49.6447L143.786 48.7558L142.563 49.7558L141.341 50.3113L140.451 50.5335H138.672L137.338 50.2002L136.227 49.6447L135.115 48.6447L134.226 47.6447L133.336 45.8669L132.78 44.2002L132.558 42.8669V39.0891L133.003 36.8669L133.559 35.4224L134.337 33.978L135.337 32.7558L136.671 31.7558L137.894 31.2002L138.895 30.978H140.896L142.341 31.4224L143.564 32.2002L143.898 32.4224L143.786 28.7558L143.675 27.7558L143.342 27.3113L141.674 27.2002L141.118 26.8669L140.896 26.4224V25.6447L141.229 25.0891L141.785 24.6447ZM139.006 33.7558L137.894 34.3113L137.116 35.0891L136.338 36.4224L135.893 37.8669L135.671 39.6447V41.7558L135.893 43.6447L136.449 45.4224L137.116 46.5335L138.117 47.4224L139.006 47.7558H140.674L142.008 47.0891L142.786 46.2002L143.453 44.7558L143.898 42.8669L144.009 41.6447V39.978L143.786 37.7558L143.342 36.0891L142.675 34.978L141.896 34.2002L140.896 33.7558H139.006Z" fill="#374957"/>
<path d="M222.163 30.9779H224.497L226.276 31.4223L227.388 31.9779L228.389 32.8668L229.056 34.2001L229.278 35.4224L229.389 39.9779L229.5 47.4224L229.611 47.8668H230.501L230.834 46.7557L230.945 43.5335L231.279 42.8668L231.835 42.5335H232.613L233.28 42.9779L233.614 43.9779V46.4224L233.391 47.9779L232.947 49.2001L232.28 49.9779L231.279 50.4224L230.834 50.5335H229.167L228.166 50.2001L227.277 49.4224L226.832 48.6446V48.4224L225.943 49.2001L224.831 49.9779L223.497 50.4224L222.941 50.5335H220.829L219.384 50.089L218.383 49.5335L217.494 48.7557L216.827 47.7557L216.382 46.6446L216.271 46.2001V43.7557L216.715 42.3112L217.382 41.3112L218.383 40.5335L219.272 40.089L220.718 39.6446L224.386 38.9779L225.387 38.5335L225.943 37.9779L226.165 37.3112V35.4224L225.832 34.4223L225.276 33.8668L224.72 33.5335L224.275 33.4223H222.608L221.274 33.8668L220.718 34.3112V35.089L221.274 36.089V37.3112L220.829 37.9779L220.051 38.3112H218.717L217.827 37.8668L217.382 37.3112L217.16 36.6446V35.089L217.605 33.7557L218.494 32.6446L219.717 31.7557L221.162 31.2001L222.163 30.9779ZM226.387 40.9779L224.942 41.4224L221.718 41.9779L220.495 42.4224L219.717 43.089L219.272 43.8668L219.161 44.3112V45.8668L219.717 46.9779L220.606 47.7557L221.496 48.089H222.941L224.164 47.6446L224.831 47.2001V46.9779L225.165 46.8668L225.943 45.6446L226.276 44.6446L226.499 42.3112V40.9779H226.387Z" fill="#374957"/>
<path d="M120.663 30.9779H122.997L124.665 31.4223L125.888 32.089L127.222 33.3112L128.222 34.8668L128.889 36.5335L129.334 38.5335L129.445 39.6446V41.8668L129.223 43.7557L128.556 45.9779L127.667 47.6446L126.444 48.9779L125.332 49.7557L123.998 50.3112L122.886 50.5335H120.774L118.995 50.089L117.772 49.4224L116.661 48.4224L115.771 47.3112L114.882 45.4224L114.437 43.7557L114.215 42.089V39.5335L114.548 37.3112L114.993 35.8668L115.882 34.089L116.772 32.9779L117.772 32.089L119.329 31.3112L120.663 30.9779ZM121.219 33.5335L119.996 33.9779L119.106 34.6446L118.328 35.7557L117.772 36.9779L117.328 39.089V42.4224L117.661 44.2001L118.217 45.5335L118.884 46.6446L119.773 47.4224L120.663 47.8668L121.107 47.9779H122.553L123.553 47.6446L124.554 46.8668L125.221 45.9779L125.777 44.8668L126.11 43.8668L126.332 42.6446L126.444 40.4224L126.221 38.2001L125.665 36.4224L124.998 35.2001L124.22 34.3112L122.886 33.6446L122.441 33.5335H121.219Z" fill="#374957"/>
<path d="M186.588 30.9779H188.922L190.59 31.4223L191.813 32.089L193.147 33.3112L194.147 34.8668L194.703 36.089L195.148 37.7557L195.37 39.6446V41.9779L195.037 44.3112L194.481 45.9779L193.591 47.6446L192.369 48.9779L191.479 49.6446L190.256 50.2001L188.811 50.5335H186.699L185.254 50.2001L183.697 49.4224L182.363 48.2001L181.363 46.6446L180.696 45.089L180.362 43.7557L180.14 41.6446V39.8668L180.362 37.8668L180.807 36.2001L181.474 34.6446L182.252 33.5335L183.252 32.4223L184.475 31.6446L185.587 31.2001L186.588 30.9779ZM187.144 33.5335L185.921 33.9779L185.142 34.5335L184.142 35.9779L183.586 37.4224L183.252 39.2001V42.4224L183.697 44.5335L184.587 46.3112L185.142 46.9779L186.032 47.6446L187.032 47.9779H188.478L189.478 47.6446L190.479 46.8668L191.257 45.8668L191.924 44.3112L192.257 42.7557L192.369 41.7557V39.7557L192.035 37.6446L191.368 35.8668L190.479 34.6446L189.478 33.8668L188.366 33.5335H187.144Z" fill="#374957"/>
<path d="M158.461 30.9779H160.684L162.13 31.3112L163.464 31.9779L164.576 32.9779L165.354 33.8668L166.243 35.4224L166.799 37.089L167.132 39.2001V42.4224L166.799 44.4224L166.132 46.4224L165.131 47.9779L164.464 48.7557L163.13 49.7557L161.796 50.3112L160.684 50.5335H158.461L157.016 50.2001L155.682 49.5335L154.459 48.5335L153.458 47.2001L152.791 45.8668L152.235 43.9779L152.013 42.4224V39.089L152.347 37.089L152.902 35.4224L153.681 33.9779L154.904 32.6446L155.682 31.9779L157.016 31.3112L158.461 30.9779ZM158.906 33.5335L157.683 33.9779L156.571 34.9779L155.682 36.5335L155.237 37.9779L155.015 39.7557V41.8668L155.348 43.9779L155.904 45.4224L156.571 46.5335L157.349 47.3112L158.461 47.8668L158.906 47.9779H160.24L161.463 47.5335L162.574 46.5335L163.353 45.3112L163.908 43.6446L164.131 42.4224V39.089L163.686 37.089L162.797 35.3112L162.019 34.4223L161.018 33.7557L160.24 33.5335H158.906Z" fill="#374957"/>
<path d="M170.023 24.6447H171.246L172.469 24.8669L173.914 24.6447H175.026L175.359 24.8669L175.471 25.2002L175.359 29.0891V46.6447L175.582 47.4224L175.804 47.5335L177.472 47.6447L178.139 48.2002L178.25 48.5335V49.4224L177.916 49.978L177.472 50.2002H175.693L175.026 50.0891H171.913L171.357 50.2002H170.023L169.467 49.8669L169.245 49.3113V48.5335L169.578 47.8669L170.023 47.6447L171.691 47.5335L171.913 47.4224L172.024 47.0891L172.247 43.0891V32.6447L172.135 29.3113L172.024 27.8669L171.802 27.4224L171.024 27.2002H170.023L169.467 26.8669L169.245 26.5335V25.4224L169.69 24.8669L170.023 24.6447Z" fill="#374957"/>
<path d="M161.018 23.3113H161.908L162.575 23.7557L163.019 24.6446L162.908 25.6446L162.575 26.2002L161.463 26.8668L157.683 28.4224L157.349 28.5335H156.46L156.238 28.4224L156.127 27.6446L156.571 26.9779L157.683 25.8668L158.572 25.0891L159.684 24.0891L160.685 23.4224L161.018 23.3113Z" fill="#374957"/>
<path d="M32.0399 5.5L32.9292 5.72222L33.4851 6.16667L33.9298 7.16667L34.041 7.83333V10.5L33.7074 11.9444L33.1516 12.9444L33.0404 12.7222L33.4851 11.1667L33.5963 10.6111V8.05556L33.3739 6.94444L32.9292 6.38889L32.7069 6.27778H31.7063L31.1505 6.61111L30.817 7.27778L30.7058 8.05556L30.9281 9.16667L30.2611 8.61111L29.1494 8.38889H28.3712L27.593 8.72222L27.2594 9.38889L27.3706 10.1667L27.9265 10.7222L29.1494 11.2778L30.817 11.7222L32.0399 11.8333L32.151 12.0556L31.7063 12.1667H30.3723L28.927 11.8333L27.8153 11.2778L27.0371 10.3889L26.8148 9.72222L26.9259 8.83333L27.4818 8.16667L28.1488 7.83333H29.2605L30.1499 8.16667L30.2611 8.27778L30.3723 6.94444L30.817 6.05556L31.484 5.61111L32.0399 5.5Z" fill="#374957"/>
<path d="M45.047 19.9445H45.2694L45.3805 20.1667V20.9445L44.8247 21.7222L43.6018 22.5L41.6007 23.3889L39.5996 23.8333H38.1543L37.3761 23.6111L37.265 23.1667L39.2661 23.0556L41.156 22.6111L42.8236 21.9445L44.0465 21.1667L44.9358 20.1667L45.047 19.9445Z" fill="#374957"/>
<path d="M24.4801 30.7222L24.8136 30.8333L24.9248 31.4999L24.369 32.0555L23.7019 32.4999L22.8125 32.9444L21.812 33.8333L20.8114 35.1666L20.3668 36.2777L20.1444 36.0555L20.2556 35.0555L20.8114 33.9444L21.9232 32.4999L23.0349 31.3888L24.1466 30.8333L24.4801 30.7222Z" fill="#374957"/>
<path d="M109.879 56.8668L110.879 56.9779H112.102L112.88 56.8668H113.992L114.548 57.3113V58.089L114.214 58.4224H112.658L112.436 59.089L112.324 59.8668V68.6446L112.547 69.7557L112.769 69.9779L114.214 70.089L114.548 70.4224V71.2002L113.992 71.6446H112.992L112.213 71.5335H110.546L109.879 71.6446H108.989L108.545 71.2002V70.4224L108.989 70.089L110.212 69.9779L110.435 69.5335L110.546 68.5335V58.9779L108.322 68.089L107.544 71.3113L107.211 71.7557L106.21 71.8668L105.543 71.5335L104.987 69.5335L103.208 62.4224L102.319 58.9779V67.3113L102.43 69.4224L102.764 69.9779L104.209 70.089L104.542 70.5335L104.431 71.3113L104.098 71.6446H103.097L102.541 71.5335H100.763L99.9844 71.6446H98.8726L98.4279 71.3113L98.3168 70.6446L98.6503 70.089L100.207 69.9779L100.429 69.7557L100.54 69.089V59.5335L100.318 58.7557L100.207 58.6446H98.9838L98.4279 58.3113L98.3168 57.7557L98.6503 57.2002L98.9838 56.9779H103.208L103.542 57.3113L104.098 59.3113L106.432 68.6446L106.655 68.2002L108.989 58.6446L109.434 57.2002L109.879 56.8668Z" fill="#374957"/>
<path d="M200.929 60.5334H202.041L202.93 60.8668L203.819 61.6446H204.153L205.042 60.8668L206.154 60.5334H207.599L208.711 60.8668L209.6 61.6446L210.045 62.5334L210.267 64.5334L210.378 70.089H211.379L211.824 70.3112L211.935 70.5334V71.2001L211.49 71.6446H210.49L209.378 71.5334L208.489 71.6446H207.488L207.043 71.3112V70.4223L207.266 70.2001L208.266 70.089L208.377 68.3112V63.9779L208.155 62.9779L207.821 62.4223L207.266 62.2001H205.932L205.265 62.6446L204.931 63.3112L204.82 63.8668V69.9779L204.931 70.089L205.932 70.3112L206.154 70.5334V71.4223L205.82 71.6446H204.82L203.597 71.5334L201.707 71.6446L201.373 71.3112V70.5334L201.596 70.2001L202.708 70.089L202.819 69.3112V63.9779L202.596 62.9779L202.263 62.4223L201.373 62.089L200.373 62.2001L199.706 62.6446L199.261 63.6446L199.039 65.2001V68.7557L199.15 70.089H199.928L200.484 70.4223V71.3112L200.039 71.6446H198.928L197.927 71.5334L196.037 71.6446L195.593 71.2001V70.5334L195.815 70.2001L196.927 70.089L197.149 69.9779L197.26 69.4223V63.089L197.038 62.3112L195.926 62.2001L195.593 61.8668V61.2001L195.926 60.7557H198.817L199.15 61.5334L200.039 60.8668L200.929 60.5334Z" fill="#374957"/>
<path d="M172.135 56.8668H173.469L174.247 56.9779H179.917L181.14 57.4224L182.03 58.2002L182.585 59.3113L182.697 59.8668V61.5335L182.252 62.7557L181.696 63.4224L181.029 63.8668L180.473 64.089L181.474 64.7557L181.807 65.3113L182.03 66.6446L182.141 69.089L182.474 69.9779L184.031 70.089L184.364 70.5335L184.253 71.3113L183.586 71.6446L181.363 71.5335L180.695 71.089L180.362 70.2002L180.14 67.6446L180.028 66.089L179.695 65.4224L179.139 65.089L178.583 64.9779H176.249L175.915 65.089L175.804 68.089L175.915 69.4224L176.137 69.9779L177.805 70.089L178.027 70.4224V71.2002L177.471 71.6446H176.471L175.693 71.5335H173.914L173.247 71.6446H172.246L171.802 71.4224L171.579 70.9779L171.691 70.3113L171.913 70.089L173.469 69.9779L173.692 69.6446L173.803 69.089V59.4224L173.58 58.5335L173.136 58.4224H171.913L171.579 57.9779L171.691 57.2002L172.135 56.8668ZM177.249 58.3113L176.249 58.5335L175.804 58.9779V63.2002L176.582 63.4224L178.917 63.3113L179.917 62.9779L180.584 62.2002L180.807 61.6446V59.9779L180.362 59.089L179.584 58.5335L178.694 58.3113H177.249Z" fill="#374957"/>
<path d="M158.239 60.5334H159.684L160.796 60.8668L161.685 61.4223L162.13 62.089L162.352 63.089L162.463 69.8668L162.575 70.2001H163.019L163.242 69.3112V67.9779L163.464 67.4223L163.686 67.2001L164.464 67.3112L164.798 67.7557V69.9779L164.464 71.089L163.797 71.6446L163.13 71.8668H162.352L161.463 71.5334L161.018 70.9779L160.796 70.7557L159.795 71.5334L158.572 71.8668H157.683L156.794 71.6446L155.793 71.089L155.126 70.2001L154.792 69.2001V67.9779L155.237 66.7557L156.127 65.9779L157.349 65.5334L159.684 65.089L160.351 64.6446L160.573 63.5334L160.351 62.6446L159.795 62.089L159.351 61.9779H158.572L157.572 62.4223L157.461 62.8668L157.794 63.6446L157.683 64.4223L157.238 64.7557H156.127L155.571 64.4223L155.348 63.8668V62.8668L155.682 61.9779L156.46 61.2001L157.349 60.7557L158.239 60.5334ZM160.24 66.4223L157.683 66.9779L156.905 67.4223L156.571 67.9779L156.46 68.8668L156.794 69.7557L157.461 70.3112L157.905 70.4223H158.684L159.573 70.089L160.351 69.2001L160.685 68.089V66.4223H160.24Z" fill="#374957"/>
<path d="M216.271 60.5334H217.716L218.828 60.8668L219.828 61.5334L220.273 62.4223L220.384 63.089L220.495 69.9779L220.606 70.2001H221.051L221.273 69.3112V67.9779L221.496 67.4223L221.718 67.2001L222.496 67.3112L222.83 67.7557L222.941 68.6446L222.83 70.089L222.496 71.089L221.829 71.6446L221.162 71.8668H220.384L219.495 71.5334L219.05 70.9779V70.6446L218.494 70.8668V71.089L217.494 71.6446L216.604 71.8668H215.715L214.825 71.6446L214.047 71.2001L213.491 70.6446L213.047 69.9779L212.824 68.9779V68.2001L213.269 66.7557L214.158 65.9779L215.381 65.5334L217.716 65.089L218.383 64.6446L218.605 63.5334L218.272 62.4223L217.827 62.089L217.382 61.9779H216.604L215.715 62.3112L215.492 62.5334L215.604 63.089L215.826 63.6446L215.715 64.4223L215.27 64.7557H214.158L213.603 64.4223L213.38 63.8668V62.8668L213.714 62.089L214.492 61.2001L215.381 60.7557L216.271 60.5334ZM218.272 66.4223L215.715 66.9779L214.937 67.4223L214.603 67.9779L214.492 68.7557L214.825 69.7557L215.381 70.2001L215.937 70.4223H216.715L217.605 70.089L218.383 69.2001L218.716 68.089V66.4223H218.272Z" fill="#374957"/>
<path d="M131.891 60.5334H133.447L134.559 60.8668L135.559 61.7557L136.004 62.8668L136.115 63.5334L136.226 69.5334L136.338 69.9779L137.116 70.089L137.672 70.3112L137.894 70.6446L137.783 71.4223L137.449 71.6446H136.449L135.226 71.5334L134.225 71.6446H133.114L132.78 71.4223V70.4223L133.336 70.089H134.114L134.225 69.9779L134.337 69.089V63.9779L134.003 62.8668L133.558 62.3112L133.002 62.089H131.668L130.779 62.5334L130.112 63.6446L129.89 64.5334V69.7557L130.112 70.089H130.89L131.446 70.4223V71.3112L131.113 71.6446L128.667 71.5334L126.777 71.6446L126.332 71.2001L126.443 70.4223L126.999 70.089H127.666L127.889 69.9779L128 69.5334V62.9779L127.777 62.3112L126.666 62.2001L126.332 61.8668V61.2001L126.666 60.7557H129.667L129.778 61.5334L130.779 60.8668L131.891 60.5334Z" fill="#374957"/>
<path d="M119.773 60.5334H121.218L122.33 60.8668L123.22 61.5334L123.998 62.4223L124.554 63.6446L124.776 64.5334L124.887 66.6446L124.665 68.3112L124.109 69.7557L123.442 70.6446L122.664 71.3112L121.552 71.7557L120.996 71.8668H119.996L118.995 71.6446L118.106 71.2001L117.105 70.2001L116.438 68.8668L116.104 67.4223V64.9779L116.438 63.5334L117.105 62.2001L118.106 61.2001L119.217 60.6446L119.773 60.5334ZM119.773 62.089L119.106 62.5334L118.439 63.3112L117.994 64.5334L117.883 65.089V67.3112L118.217 68.6446L118.884 69.6446L119.551 70.2001L119.884 70.3112H121.107L121.997 69.7557L122.664 68.7557L122.997 67.7557L123.108 67.2001V65.3112L122.886 64.2001L122.219 62.8668L121.441 62.2001L121.107 62.089H119.773Z" fill="#374957"/>
<path d="M189.033 60.5334H190.367L191.479 60.8668L192.48 61.5334L193.147 62.3112L193.703 63.4223L194.036 64.6446L194.147 66.5334L193.925 68.3112L193.48 69.5334L192.702 70.6446L191.701 71.4223L190.256 71.8668H189.256L187.922 71.5334L186.81 70.7557L186.032 69.6446L185.476 68.2001L185.365 67.5334V64.9779L185.587 63.8668L186.143 62.5334L186.921 61.5334L187.922 60.8668L189.033 60.5334ZM189.033 62.089L188.144 62.6446L187.477 63.7557L187.143 64.9779V67.4223L187.588 68.8668L188.033 69.5334L188.811 70.2001L189.144 70.3112H190.367L191.257 69.7557L191.924 68.7557L192.257 67.7557L192.368 66.9779V65.4223L192.035 63.8668L191.368 62.7557L190.701 62.2001L190.367 62.089H189.033Z" fill="#374957"/>
<path d="M227.499 60.5334H228.833L229.945 60.8668L230.945 61.5334L231.612 62.3112L232.168 63.4223L232.502 64.7557L232.613 66.5334L232.391 68.2001L231.946 69.4223L231.279 70.5334L230.389 71.3112L229.278 71.7557L228.722 71.8668H227.721L226.387 71.5334L225.164 70.6446L224.386 69.4223L223.941 68.2001L223.83 67.5334V64.8668L224.164 63.4223L224.831 62.2001L225.498 61.4223L226.61 60.7557L227.499 60.5334ZM227.499 62.089L226.61 62.6446L226.054 63.4223L225.609 64.8668V67.4223L225.943 68.6446L226.498 69.5334L227.277 70.2001L227.61 70.3112H228.722L229.611 69.8668L230.278 68.9779L230.723 67.7557L230.834 66.9779V65.4223L230.501 63.8668L229.834 62.7557L229.167 62.2001L228.833 62.089H227.499Z" fill="#374957"/>
<path d="M148.567 60.5334H150.012L151.124 60.8668L152.013 61.5334L152.458 62.089L152.791 62.7557L152.902 63.3112V64.4223L152.569 65.3112L152.124 65.6446L151.124 65.7557L150.457 65.4223L150.234 64.9779V64.089L150.79 63.5334H151.012L150.679 62.7557L150.234 62.3112L149.567 62.089L148.678 62.2001L148.122 62.5334H147.9L147.121 64.089L146.899 65.089V67.4223L147.121 68.4223L147.566 69.3112L148.122 69.8668L148.9 70.2001H149.79L150.679 69.7557L151.235 68.7557L151.568 67.3112L152.013 66.9779L152.791 67.089L153.125 67.5334V68.7557L152.791 69.7557L152.013 70.7557L151.124 71.4223L150.345 71.7557L149.678 71.8668H148.678L147.233 71.4223L146.121 70.4223L145.565 69.5334L145.12 68.2001L145.009 67.5334V65.089L145.454 63.3112L146.01 62.2001L146.788 61.3112L148.122 60.6446L148.567 60.5334Z" fill="#374957"/>
<path d="M139.228 60.6447L140.896 60.7558L141.785 60.6447L142.119 60.8669V66.2002L142.23 70.0891H143.23L143.786 70.4224V71.3113L143.342 71.6447H142.23L140.896 71.5335L140.006 71.6447H139.006L138.672 71.3113V70.4224L139.228 70.0891H140.006L140.229 69.8669V62.978L140.006 62.3113L139.006 62.2002L138.672 61.978L138.561 61.3113L138.784 60.8669L139.228 60.6447Z" fill="#374957"/>
<path d="M215.159 56.4224H216.159L218.383 57.089L218.716 57.2001H219.828L220.606 56.5335H221.162L221.273 57.089L220.829 57.9779L220.273 58.6446L219.717 58.9779L219.272 59.089H218.494L216.715 58.5335L215.715 58.2001L214.936 58.3113L214.047 58.8668L213.491 58.7557L213.602 57.9779L214.269 56.9779L215.159 56.4224Z" fill="#374957"/>
<path d="M120.218 56.3113L120.996 56.4224L122.775 57.8668L123.664 58.5335V59.0891L122.997 59.2002L120.774 58.3113L119.995 58.4224L117.994 59.2002H117.438L117.216 58.9779L117.327 58.5335L118.995 57.2002L120.218 56.3113Z" fill="#374957"/>
<path d="M140.785 57.2002H141.452L142.23 57.8669L142.341 58.7558L142.008 59.4224L141.674 59.7558L140.673 59.8669L140.006 59.3113L139.895 59.0891V58.0891L140.34 57.4224L140.785 57.2002Z" fill="#374957"/>
<path d="M56.4978 22.6111L56.7201 22.9444L57.6095 24.1666L58.7212 24.8333L60.1665 25.3889L61.3894 25.6111V25.7222H60.0553L58.7212 25.2778L57.4984 24.3889L56.7201 23.5L56.4978 23.0555V22.6111Z" fill="#374957"/>
<path d="M50.7168 61.9445L50.9391 62.3889L51.3838 64.0556L52.0509 65.2778L52.6067 66.0556L53.6073 66.7222L53.3849 66.8333L52.4956 66.2778L51.9397 65.6111L51.1615 64.2778L50.7168 62.6111V61.9445Z" fill="#374957"/>
<path d="M50.2721 64.7222L50.7168 65.1666L51.3838 66.1666L52.3844 67.0555L53.6073 67.6111L53.1626 67.7222L52.162 67.2777L50.9391 66.1666L50.2721 64.9444V64.7222Z" fill="#374957"/>
<path d="M34.5968 63.0555H34.708L34.8192 66.0555L35.375 67.8333L35.4862 68.3889L35.1527 67.9444L34.5968 66.2778L34.4857 65.7222V64.2778L34.5968 63.0555Z" fill="#374957"/>
<path d="M37.4873 51.5L38.2655 51.8333L38.3767 52.6111L38.0431 52.9444H37.3761L36.8203 52.3889L36.9314 51.8333L37.4873 51.5ZM37.3761 51.8333L37.0426 52.1667L37.1538 52.6111L37.4873 52.8333L38.0431 52.7222L38.2655 52.5L38.1543 51.9444L37.3761 51.8333Z" fill="#374957"/>
<path d="M35.8197 63.6111L35.9309 63.9444L35.8197 64.3889V65.8333L36.3756 67.3889L36.2644 67.6111L35.8197 66.7222L35.4862 65.6111L35.5974 64.1666L35.8197 63.6111Z" fill="#374957"/>
<path d="M47.2705 32.7222L47.7151 32.8333L47.8263 32.9444L47.7151 33.7222L47.2705 33.8333L47.3816 33.6111H47.604V33.0555L47.1593 33.1666L46.8258 33.8333L46.7146 33.2777L47.2705 32.7222Z" fill="#374957"/>
<path d="M30.2611 36.0555H30.8169L30.9281 36.2778L30.3722 36.3889V37.0555H30.1499V36.1667L30.2611 36.0555Z" fill="#374957"/>
<path d="M54.1631 47.8334L54.719 48.0556L55.386 48.7223L55.2749 48.9445L54.4967 48.1667L54.1631 47.8334Z" fill="#374957"/>
<path d="M31.0393 36.3889L31.2616 36.5L31.1505 37.0556L30.7058 37.2778L30.3723 37.0556L31.0393 36.9445V36.3889Z" fill="#374957"/>
<path d="M55.9419 55.1666L56.1642 55.2777L55.386 55.7222L55.0525 55.6111L55.9419 55.1666Z" fill="#374957"/>
<path d="M52.829 55.9445H54.0519V56.0556H52.829V55.9445Z" fill="#374957"/>
<path d="M54.6078 55.7222L55.0525 55.8333L54.0519 55.9444V55.8333L54.6078 55.7222Z" fill="#374957"/>
<path d="M43.0459 48.1666L43.6018 48.3888L43.3794 48.5L43.0459 48.1666Z" fill="#374957"/>
<path d="M50.6056 61.3889H50.7171V61.9445H50.6056V61.3889Z" fill="#374957"/>
</g>
<defs>
<clipPath id="clip0_32_1158">
<rect width="234" height="80" fill="white"/>
</clipPath>
</defs>
</svg>
